<svg xmlns="http://www.w3.org/2000/svg" viewBox="389 9 230 230"><path fill="#fe703a" d="M591.16,117.7l-.02-.1c-4.3-15.99-30.29-16.21-38.88-16.28-18.52.3-38.38,3.42-58.85,9.17-.82-15.97-3.01-32.6-6.6-49.59-1.81-7.69-6.43-27.31-14.84-36.45-1.81-2.02-3.94-3.64-6.44-4.39-.87-.26-1.76-.41-2.69-.44h-.15c-12.85.63-19.31,24.15-23.05,41.81-3,14.99-4.81,31.14-5.38,48.03-.26,8.8-.2,16.96.2,24.64-7.59,4.32-16.11,10.08-20.42,16.35-1.53,2.18-2.62,4.56-2.8,7.11-.07.92-.02,1.84.16,2.76l.03.15c2.43,8.68,15.21,11.8,28.87,12.79,2.77,10.09,9.55,30.42,24.44,30.69h.11c15.83-.61,21.98-23.62,24.22-32.97,5.43-.76,10.93-1.66,16.48-2.72,23.63-4.63,42.16-10.53,58.32-18.58,7.59-3.91,30.67-15.82,27.3-31.98h0ZM433.65,168.35c-4.58-.61-16.6-2.24-18.56-8.83,0-.03-.01-.05-.02-.08-.26-1.48,0-3.02.7-4.59,1.3-2.7,4.47-6.48,11.89-11.57,2.31-1.48,4.68-2.86,7.08-4.16.77,10.67,2.22,20.42,4.39,29.63-1.83-.1-3.65-.23-5.48-.41h0ZM470.79,182.07l-.03.07c-.76,1.44-2.18,4.13-3.74,5.93-1.25,1.44-3.49,1.5-4.79.11-1.72-1.83-3.86-5.23-6.2-10.76-.48-1.24-.94-2.48-1.39-3.73.93,0,1.85,0,2.75-.03,5.62-.15,11.36-.49,17.19-1.01-1.09,3.26-2.31,6.38-3.78,9.42h0ZM479.04,155.36c-.79,3.74-1.59,7.25-2.47,10.57-7.65,1.41-15.57,2.44-23.59,2.84-3.67-11.58-5.97-23.55-7.47-34.89,12.56-5.48,25.65-9.16,38.04-11.96-.88,11.65-2.39,22.86-4.51,33.44h0ZM484.28,108.91c-.05,1.47-.13,2.91-.2,4.37-12.43,3.94-25.02,8.82-37.66,14.6-.47.23-1,.49-1.56.76-.78-6.8-1.3-13.3-1.69-19.26-.99-21.42-.95-46.47,6.89-69.85,1.61-4.32,5.86-15.66,12.74-16.1h.08c1.52.07,2.97.68,4.35,1.71,2.35,1.87,5.33,5.79,8.65,14.11,8.34,23.19,8.92,48.24,8.39,69.67h.01,0ZM576.29,123.63c-1.41,2.08-4.25,4.92-9.15,8.41-20.33,13.72-44.73,21.95-63.67,27.57-4.13,1.14-8.42,2.27-12.82,3.33,2.33-13.52,3.35-28,3.08-43.17,16.18-3.09,31.91-4.84,46.76-5.22,10.52-.17,19.3.13,27.94,2.11l.07.02c1.58.42,4.52,1.21,6.62,2.32,1.68.89,2.24,3.06,1.17,4.64h0Z"/></svg>