<?xml version="1.0" encoding="UTF-8"?>
<svg id="Layer_1" xmlns="http://www.w3.org/2000/svg" version="1.1" viewBox="94 80 611 260">
  <!-- Generator: Adobe Illustrator 30.2.1, SVG Export Plug-In . SVG Version: 2.1.1 Build 1)  -->
  <defs>
    <style>
      .st0 {
        fill: #fb703b;
      }

      .st1 {
        fill: #023435;
      }
    </style>
  </defs>
  <path class="st0" d="M685.16,197.7l-.02-.1c-4.3-15.99-30.29-16.21-38.88-16.28-18.52.3-38.38,3.42-58.85,9.17-.82-15.97-3.01-32.6-6.6-49.59-1.81-7.69-6.43-27.31-14.84-36.45-1.81-2.02-3.94-3.64-6.44-4.39-.87-.26-1.76-.41-2.69-.44h-.15c-12.85.63-19.31,24.15-23.05,41.81-3,14.99-4.81,31.14-5.38,48.03-.26,8.8-.2,16.96.2,24.64-7.59,4.32-16.11,10.08-20.42,16.35-1.53,2.18-2.62,4.56-2.8,7.11-.07.92-.02,1.84.16,2.76l.03.15c2.43,8.68,15.21,11.8,28.87,12.79,2.77,10.09,9.55,30.42,24.44,30.69h.11c15.83-.61,21.98-23.62,24.22-32.97,5.43-.76,10.93-1.66,16.48-2.72,23.63-4.63,42.16-10.53,58.32-18.58,7.59-3.91,30.67-15.82,27.3-31.98h0ZM527.65,248.35c-4.58-.61-16.6-2.24-18.56-8.83,0-.03-.01-.05-.02-.08-.26-1.48,0-3.02.7-4.59,1.3-2.7,4.47-6.48,11.89-11.57,2.31-1.48,4.68-2.86,7.08-4.16.77,10.67,2.22,20.42,4.39,29.63-1.83-.1-3.65-.23-5.48-.41h0ZM564.79,262.07l-.03.07c-.76,1.44-2.18,4.13-3.74,5.93-1.25,1.44-3.49,1.5-4.79.11-1.72-1.83-3.86-5.23-6.2-10.76-.48-1.24-.94-2.48-1.39-3.73.93,0,1.85,0,2.75-.03,5.62-.15,11.36-.49,17.19-1.01-1.09,3.26-2.31,6.38-3.78,9.42h0ZM573.04,235.36c-.79,3.74-1.59,7.25-2.47,10.57-7.65,1.41-15.57,2.44-23.59,2.84-3.67-11.58-5.97-23.55-7.47-34.89,12.56-5.48,25.65-9.16,38.04-11.96-.88,11.65-2.39,22.86-4.51,33.44ZM578.28,188.91c-.05,1.47-.13,2.91-.2,4.37-12.43,3.94-25.02,8.82-37.66,14.6-.47.23-1,.49-1.56.76-.78-6.8-1.3-13.3-1.69-19.26-.99-21.42-.95-46.47,6.89-69.85,1.61-4.32,5.86-15.66,12.74-16.1h.08c1.52.07,2.97.68,4.35,1.71,2.35,1.87,5.33,5.79,8.65,14.11,8.34,23.19,8.92,48.24,8.39,69.67h.01ZM670.29,203.63c-1.41,2.08-4.25,4.92-9.15,8.41-20.33,13.72-44.73,21.95-63.67,27.57-4.13,1.14-8.42,2.27-12.82,3.33,2.33-13.52,3.35-28,3.08-43.17,16.18-3.09,31.91-4.84,46.76-5.22,10.52-.17,19.3.13,27.94,2.11l.07.02c1.58.42,4.52,1.21,6.62,2.32,1.68.89,2.24,3.06,1.17,4.64h0Z"/>
  <path class="st1" d="M173.42,219.2v-36.21h13.33v36.19c0,15.01,8.29,22.6,20.91,22.6s20.91-7.57,20.91-22.6v-36.19h13.33v36.19c0,23.01-13.75,34.94-34.24,34.94s-34.24-11.78-34.24-34.94h0v.02Z"/>
  <path class="st1" d="M247.24,217.23c0-23.01,17.12-36.06,35.22-36.06,11.23,0,20.77,5.04,25.82,14.03v-34.66h13.33v56.54c0,22.6-15.43,37.04-36.92,37.04s-37.46-15.16-37.46-36.9h0v.02h0ZM308.29,217.65c0-14.03-9.54-24.13-23.71-24.13s-23.86,10.1-23.86,24.13,9.55,24.13,23.86,24.13,23.71-10.1,23.71-24.13h0Z"/>
  <path class="st1" d="M326.96,217.65c0-21.05,15.45-36.48,37.34-36.48s37.04,15.43,37.04,36.48v4.91h-60.34c1.96,12.35,11.23,19.22,23.3,19.22,8.99,0,15.29-2.81,19.37-8.84h14.73c-5.33,12.91-17.96,21.18-34.1,21.18-21.89,0-37.34-15.44-37.34-36.47ZM387.31,210.63c-2.66-11.08-11.78-17.12-23.01-17.12s-20.21,6.17-22.87,17.12h45.89-.01Z"/>
  <path class="st1" d="M406.11,216.24c0-23.15,13.75-35.08,34.23-35.08s34.24,11.78,34.24,35.08v36.06h-13.33v-36.06c0-15.01-8.29-22.73-20.91-22.73s-20.91,7.72-20.91,22.73v36.06h-13.33v-36.06h0Z"/>
  <path class="st1" d="M170.75,251.88h-27.4c-15.91,0-28.86-12.94-28.86-28.85v-62.48h13.93v62.5c0,8.22,6.7,14.92,14.92,14.92h27.4v13.93h0v-.02Z"/>
  <g>
    <path class="st0" d="M221.99,301.97c0-11.48-8.66-17.99-17.82-17.99-5.68,0-10.51,2.51-13.06,7v-17.29h-6.74v28.21c0,11.28,7.81,18.48,18.68,18.48s18.95-7.56,18.95-18.41h0s0,0,0,0ZM191.1,302.18c0-7,4.83-12.04,12-12.04s12.07,5.04,12.07,12.04c0,7-4.83,12.04-12.07,12.04-7.24,0-12-5.04-12-12.04h0Z"/>
    <path class="st0" d="M142.96,319.27h-13.86c-8.05,0-14.6-6.46-14.6-14.39v-31.17h7.05v31.18c0,4.1,3.39,7.44,7.55,7.44h13.86v6.95h0Z"/>
    <path class="st0" d="M144.22,302.5c0-10.83,7.79-18.44,18.91-18.44s18.63,7.4,18.63,18.44v16.97h-6.16v-7.54c-2.34,5.59-7.51,8.45-13.6,8.45-9.14,0-17.78-6.5-17.78-17.88ZM175.11,302.22c0-6.98-4.82-12.01-12.04-12.01s-12.04,5.03-12.04,12.01,4.82,12.01,12.04,12.01,12.04-5.03,12.04-12.01Z"/>
  </g>
</svg>